<?xml version="1.0" encoding="UTF-8" standalone="no"?>
<!-- Created with Inkscape (http://www.inkscape.org/) -->

<svg
   width="160mm"
   height="160mm"
   viewBox="0 0 160 160"
   version="1.1"
   id="svg5"
   sodipodi:docname="white_block.svg"
   inkscape:version="1.2.2 (b0a8486541, 2022-12-01)"
   xmlns:inkscape="http://www.inkscape.org/namespaces/inkscape"
   xmlns:sodipodi="http://sodipodi.sourceforge.net/DTD/sodipodi-0.dtd"
   xmlns="http://www.w3.org/2000/svg"
   xmlns:svg="http://www.w3.org/2000/svg">
  <sodipodi:namedview
     id="namedview7"
     pagecolor="#ffffff"
     bordercolor="#000000"
     borderopacity="0.25"
     inkscape:showpageshadow="2"
     inkscape:pageopacity="0.0"
     inkscape:pagecheckerboard="0"
     inkscape:deskcolor="#d1d1d1"
     inkscape:document-units="mm"
     showgrid="false"
     showguides="false"
     inkscape:zoom="0.42215057"
     inkscape:cx="41.454403"
     inkscape:cy="163.44879"
     inkscape:window-width="1366"
     inkscape:window-height="703"
     inkscape:window-x="0"
     inkscape:window-y="33"
     inkscape:window-maximized="1"
     inkscape:current-layer="layer1" />
  <defs
     id="defs2" />
  <g
     inkscape:label="Layer 1"
     inkscape:groupmode="layer"
     id="layer1">
    <path
       id="path9165-5"
       style="fill:#000000;fill-opacity:1;stroke:#000000;stroke-width:0.491288;stroke-opacity:1"
       d="M 83.999998,14.245644 A 69.75462,69.754623 0 0 0 14.245644,84 69.75462,69.754623 0 0 0 83.999998,153.75436 69.75462,69.754623 0 0 0 153.75435,84 69.75462,69.754623 0 0 0 83.999998,14.245644 Z m 0,27.901453 a 41.852773,41.852775 0 0 1 1.077975,0.01373 41.852773,41.852775 0 0 1 1.076527,0.04196 41.852773,41.852775 0 0 1 1.075805,0.06946 41.852773,41.852775 0 0 1 1.072909,0.09696 41.852773,41.852775 0 0 1 1.070741,0.124428 41.852773,41.852775 0 0 1 1.067122,0.151929 41.852773,41.852775 0 0 1 1.062057,0.179421 41.852773,41.852775 0 0 1 1.057717,0.206915 41.852773,41.852775 0 0 1 1.051931,0.234404 41.852773,41.852775 0 0 1 1.046141,0.261173 41.852773,41.852775 0 0 1 1.038184,0.28722 41.852773,41.852775 0 0 1 1.030948,0.31471 41.852773,41.852775 0 0 1 1.022268,0.340756 41.852773,41.852775 0 0 1 1.013585,0.367524 41.852773,41.852775 0 0 1 1.003462,0.392845 41.852773,41.852775 0 0 1 0.9926,0.418892 41.852773,41.852775 0 0 1 0.98175,0.444211 41.852773,41.852775 0 0 1 0.97018,0.469535 41.852773,41.852775 0 0 1 0.95788,0.494131 41.852773,41.852775 0 0 1 0.94486,0.51873 41.852773,41.852775 0 0 1 0.9311,0.542604 41.852773,41.852775 0 0 1 0.91665,0.567204 41.852773,41.852775 0 0 1 0.90144,0.58963 41.852773,41.852775 0 0 1 0.88698,0.613506 41.852773,41.852775 0 0 1 0.86961,0.635209 41.852773,41.852775 0 0 1 0.8537,0.65836 41.852773,41.852775 0 0 1 0.83634,0.679341 41.852773,41.852775 0 0 1 0.81897,0.701046 41.852773,41.852775 0 0 1 0.80015,0.722024 41.852773,41.852775 0 0 1 0.78136,0.742284 41.852773,41.852775 0 0 1 0.76181,0.761817 41.852773,41.852775 0 0 1 0.74229,0.78135 41.852773,41.852775 0 0 1 0.72202,0.80016 41.852773,41.852775 0 0 1 0.70105,0.818973 41.852773,41.852775 0 0 1 0.67934,0.836334 41.852773,41.852775 0 0 1 0.65836,0.853697 41.852773,41.852775 0 0 1 0.6352,0.869616 41.852773,41.852775 0 0 1 0.61351,0.886977 41.852773,41.852775 0 0 1 0.58964,0.901447 41.852773,41.852775 0 0 1 0.5672,0.916642 41.852773,41.852775 0 0 1 0.5426,0.931108 41.852773,41.852775 0 0 1 0.51873,0.944854 41.852773,41.852775 0 0 1 0.49413,0.957879 41.852773,41.852775 0 0 1 0.46953,0.970177 41.852773,41.852775 0 0 1 0.44422,0.981754 41.852773,41.852775 0 0 1 0.41889,0.992603 41.852773,41.852775 0 0 1 0.39285,1.003457 41.852773,41.852775 0 0 1 0.36752,1.013586 41.852773,41.852775 0 0 1 0.34075,1.022267 41.852773,41.852775 0 0 1 0.31471,1.030948 41.852773,41.852775 0 0 1 0.28722,1.038185 41.852773,41.852775 0 0 1 0.26118,1.046141 41.852773,41.852775 0 0 1 0.2344,1.05193 41.852773,41.852775 0 0 1 0.20692,1.057717 41.852773,41.852775 0 0 1 0.17942,1.062059 41.852773,41.852775 0 0 1 0.15193,1.067121 41.852773,41.852775 0 0 1 0.12443,1.070741 41.852773,41.852775 0 0 1 0.0969,1.072909 41.852773,41.852775 0 0 1 0.0695,1.075805 41.852773,41.852775 0 0 1 0.042,1.076528 41.852773,41.852775 0 0 1 0.0137,1.077974 41.852773,41.852775 0 0 1 -0.1172,3.127573 41.852773,41.852775 0 0 1 -0.35016,3.110209 41.852773,41.852775 0 0 1 -0.58168,3.075483 41.852773,41.852775 0 0 1 -0.81028,3.02267 41.852773,41.852775 0 0 1 -1.03385,2.95466 41.852773,41.852775 0 0 1 -1.25161,2.86857 41.852773,41.852775 0 0 1 -1.46214,2.76729 41.852773,41.852775 0 0 1 -1.66543,2.65008 41.852773,41.852775 0 0 1 -1.8586,2.51841 41.852773,41.852775 0 0 1 -2.04164,2.37226 41.852773,41.852775 0 0 1 -2.21311,2.21311 41.852773,41.852775 0 0 1 -2.37226,2.04164 41.852773,41.852775 0 0 1 -2.51841,1.8586 41.852773,41.852775 0 0 1 -2.65008,1.66471 41.852773,41.852775 0 0 1 -2.76729,1.46286 41.852773,41.852775 0 0 1 -2.86857,1.25161 41.852773,41.852775 0 0 1 -2.953937,1.03384 41.852773,41.852775 0 0 1 -3.023393,0.80957 41.852773,41.852775 0 0 1 -3.075483,0.5824 41.852773,41.852775 0 0 1 -3.11021,0.35016 41.852773,41.852775 0 0 1 -3.127573,0.11721 41.852773,41.852775 0 0 1 -3.127572,-0.11721 41.852773,41.852775 0 0 1 -3.110211,-0.35018 41.852773,41.852775 0 0 1 -3.075482,-0.58239 41.852773,41.852775 0 0 1 -3.022668,-0.80957 41.852773,41.852775 0 0 1 -2.954665,-1.03384 41.852773,41.852775 0 0 1 -2.868568,-1.25161 41.852773,41.852775 0 0 1 -2.767285,-1.46286 41.852773,41.852775 0 0 1 -2.650081,-1.66471 41.852773,41.852775 0 0 1 -2.518407,-1.85861 41.852773,41.852775 0 0 1 -2.372267,-2.04164 41.852773,41.852775 0 0 1 -2.213104,-2.2131 41.852773,41.852775 0 0 1 -2.041641,-2.37227 41.852773,41.852775 0 0 1 -1.858602,-2.5184 41.852773,41.852775 0 0 1 -1.664711,-2.65009 41.852773,41.852775 0 0 1 -1.462861,-2.76728 41.852773,41.852775 0 0 1 -1.251608,-2.86857 41.852773,41.852775 0 0 1 -1.033843,-2.954663 41.852773,41.852775 0 0 1 -0.809567,-3.02267 41.852773,41.852775 0 0 1 -0.582394,-3.075482 41.852773,41.852775 0 0 1 -0.350161,-3.11021 41.852773,41.852775 0 0 1 -0.117209,-3.127573 41.852773,41.852775 0 0 1 0.117209,-3.127573 41.852773,41.852775 0 0 1 0.350161,-3.110209 41.852773,41.852775 0 0 1 0.582394,-3.075483 41.852773,41.852775 0 0 1 0.809567,-3.023393 41.852773,41.852775 0 0 1 1.033843,-2.95394 41.852773,41.852775 0 0 1 1.251608,-2.868571 41.852773,41.852775 0 0 1 1.462861,-2.767283 41.852773,41.852775 0 0 1 1.664711,-2.650081 41.852773,41.852775 0 0 1 1.858602,-2.51841 41.852773,41.852775 0 0 1 2.041641,-2.372267 41.852773,41.852775 0 0 1 2.213104,-2.213103 41.852773,41.852775 0 0 1 2.372267,-2.041639 41.852773,41.852775 0 0 1 2.518407,-1.858602 41.852773,41.852775 0 0 1 2.650081,-1.665435 41.852773,41.852775 0 0 1 2.767285,-1.462137 41.852773,41.852775 0 0 1 2.868568,-1.25161 41.852773,41.852775 0 0 1 2.954665,-1.033842 41.852773,41.852775 0 0 1 3.022668,-0.81029 41.852773,41.852775 0 0 1 3.075482,-0.581673 41.852773,41.852775 0 0 1 3.110211,-0.35016 41.852773,41.852775 0 0 1 3.127572,-0.117214 z" />
    <path
       id="rect13748"
       style="fill:#ffffff;fill-opacity:1;stroke:#000000;stroke-width:1;stroke-dasharray:none;stroke-opacity:1"
       d="M 49.323443 63.813314 A 69.75462 69.754623 45 0 0 -49.323443 63.813314 A 69.75462 69.754623 45 0 0 -49.323808 162.46057 A 69.75462 69.754623 45 0 0 49.323808 162.46057 A 69.75462 69.754623 45 0 0 49.323443 63.813314 z M 29.594358 83.542399 A 41.852773 41.852775 45 0 1 30.346732 84.314505 A 41.852773 41.852775 45 0 1 31.078644 85.105612 A 41.852773 41.852775 45 0 1 31.790092 85.91499 A 41.852773 41.852775 45 0 1 32.480347 86.742638 A 41.852773 41.852775 45 0 1 33.149408 87.587826 A 41.852773 41.852775 45 0 1 33.796545 88.449822 A 41.852773 41.852775 45 0 1 34.420661 89.327531 A 41.852773 41.852775 45 0 1 35.022487 90.221684 A 41.852773 41.852775 45 0 1 35.600197 91.131183 A 41.852773 41.852775 45 0 1 36.155616 92.055664 A 41.852773 41.852775 45 0 1 36.686553 92.992935 A 41.852773 41.852775 45 0 1 37.193008 93.944456 A 41.852773 41.852775 45 0 1 37.674615 94.908401 A 41.852773 41.852775 45 0 1 38.131375 95.88477 A 41.852773 41.852775 45 0 1 38.563287 96.872101 A 41.852773 41.852775 45 0 1 38.968889 97.870395 A 41.852773 41.852775 45 0 1 39.349278 98.878554 A 41.852773 41.852775 45 0 1 39.702993 99.89658 A 41.852773 41.852775 45 0 1 40.031129 100.92337 A 41.852773 41.852775 45 0 1 40.332225 101.95821 A 41.852773 41.852775 45 0 1 40.607011 103.00035 A 41.852773 41.852775 45 0 1 40.854392 104.04944 A 41.852773 41.852775 45 0 1 41.074733 105.10364 A 41.852773 41.852775 45 0 1 41.268033 106.16515 A 41.852773 41.852775 45 0 1 41.433563 107.22885 A 41.852773 41.852775 45 0 1 41.571687 108.29803 A 41.852773 41.852775 45 0 1 41.683136 109.36977 A 41.852773 41.852775 45 0 1 41.766449 110.4448 A 41.852773 41.852775 45 0 1 41.821626 111.52092 A 41.852773 41.852775 45 0 1 41.849031 112.59851 A 41.852773 41.852775 45 0 1 41.849031 113.67573 A 41.852773 41.852775 45 0 1 41.821626 114.75332 A 41.852773 41.852775 45 0 1 41.766449 115.82945 A 41.852773 41.852775 45 0 1 41.682771 116.90411 A 41.852773 41.852775 45 0 1 41.572052 117.97585 A 41.852773 41.852775 45 0 1 41.433928 119.04503 A 41.852773 41.852775 45 0 1 41.268033 120.1091 A 41.852773 41.852775 45 0 1 41.074367 121.17024 A 41.852773 41.852775 45 0 1 40.854392 122.22481 A 41.852773 41.852775 45 0 1 40.607011 123.27389 A 41.852773 41.852775 45 0 1 40.332225 124.31604 A 41.852773 41.852775 45 0 1 40.031129 125.35087 A 41.852773 41.852775 45 0 1 39.702993 126.37767 A 41.852773 41.852775 45 0 1 39.349278 127.39569 A 41.852773 41.852775 45 0 1 38.968889 128.40385 A 41.852773 41.852775 45 0 1 38.563287 129.40214 A 41.852773 41.852775 45 0 1 38.131375 130.38947 A 41.852773 41.852775 45 0 1 37.674615 131.36584 A 41.852773 41.852775 45 0 1 37.193008 132.32979 A 41.852773 41.852775 45 0 1 36.686553 133.28131 A 41.852773 41.852775 45 0 1 36.155616 134.21858 A 41.852773 41.852775 45 0 1 35.600197 135.14306 A 41.852773 41.852775 45 0 1 35.022487 136.05256 A 41.852773 41.852775 45 0 1 34.420661 136.94671 A 41.852773 41.852775 45 0 1 33.796545 137.82442 A 41.852773 41.852775 45 0 1 33.149408 138.68642 A 41.852773 41.852775 45 0 1 32.480347 139.53161 A 41.852773 41.852775 45 0 1 31.790092 140.35852 A 41.852773 41.852775 45 0 1 31.078644 141.16863 A 41.852773 41.852775 45 0 1 30.347098 141.95937 A 41.852773 41.852775 45 0 1 29.594723 142.73148 A 41.852773 41.852775 45 0 1 27.299964 144.86034 A 41.852773 41.852775 45 0 1 24.853195 146.81162 A 41.852773 41.852775 45 0 1 22.267206 148.57544 A 41.852773 41.852775 45 0 1 19.556978 150.13975 A 41.852773 41.852775 45 0 1 16.736397 151.49797 A 41.852773 41.852775 45 0 1 13.823002 152.64133 A 41.852773 41.852775 45 0 1 10.832507 153.56435 A 41.852773 41.852775 45 0 1 9.9471245 153.76642 L 9.9471245 72.507822 A 41.852773 41.852775 45 0 1 10.832507 72.709892 A 41.852773 41.852775 45 0 1 13.823002 73.632911 A 41.852773 41.852775 45 0 1 16.736397 74.776272 A 41.852773 41.852775 45 0 1 19.556978 76.134492 A 41.852773 41.852775 45 0 1 22.267206 77.698801 A 41.852773 41.852775 45 0 1 24.853195 79.462624 A 41.852773 41.852775 45 0 1 27.299964 81.4139 A 41.852773 41.852775 45 0 1 29.594358 83.542399 z M -9.9471245 72.508552 L -9.9471245 153.76569 A 41.852773 41.852775 45 0 1 -10.831776 153.56362 A 41.852773 41.852775 45 0 1 -13.823002 152.64133 A 41.852773 41.852775 45 0 1 -16.736397 151.49797 A 41.852773 41.852775 45 0 1 -19.556612 150.14012 A 41.852773 41.852775 45 0 1 -22.266475 148.57471 A 41.852773 41.852775 45 0 1 -24.853195 146.81162 A 41.852773 41.852775 45 0 1 -27.299964 144.86034 A 41.852773 41.852775 45 0 1 -29.594723 142.73148 A 41.852773 41.852775 45 0 1 -31.723222 140.43709 A 41.852773 41.852775 45 0 1 -33.674499 137.99032 A 41.852773 41.852775 45 0 1 -35.43759 135.4036 A 41.852773 41.852775 45 0 1 -37.002631 132.6941 A 41.852773 41.852775 45 0 1 -38.360851 129.87352 A 41.852773 41.852775 45 0 1 -39.504211 126.96012 A 41.852773 41.852775 45 0 1 -40.4265 123.9689 A 41.852773 41.852775 45 0 1 -41.123332 120.91811 A 41.852773 41.852775 45 0 1 -41.589592 117.82311 A 41.852773 41.852775 45 0 1 -41.823453 114.7018 A 41.852773 41.852775 45 0 1 -41.823818 111.57208 A 41.852773 41.852775 45 0 1 -41.589592 108.45114 A 41.852773 41.852775 45 0 1 -41.123332 105.35613 A 41.852773 41.852775 45 0 1 -40.4265 102.30535 A 41.852773 41.852775 45 0 1 -39.504211 99.31412 A 41.852773 41.852775 45 0 1 -38.360851 96.400725 A 41.852773 41.852775 45 0 1 -37.002631 93.580145 A 41.852773 41.852775 45 0 1 -35.43759 90.870647 A 41.852773 41.852775 45 0 1 -33.674499 88.283927 A 41.852773 41.852775 45 0 1 -31.723222 85.837158 A 41.852773 41.852775 45 0 1 -29.594358 83.542399 A 41.852773 41.852775 45 0 1 -27.299964 81.4139 A 41.852773 41.852775 45 0 1 -24.853195 79.462624 A 41.852773 41.852775 45 0 1 -22.266475 77.699532 A 41.852773 41.852775 45 0 1 -19.556612 76.134126 A 41.852773 41.852775 45 0 1 -16.736397 74.776272 A 41.852773 41.852775 45 0 1 -13.823002 73.632911 A 41.852773 41.852775 45 0 1 -10.831776 72.710623 A 41.852773 41.852775 45 0 1 -9.9471245 72.508552 z "
       transform="rotate(-45)" />
  </g>
</svg>
